<svg width="35" height="35" viewBox="0 0 35 35" fill="none" xmlns="http://www.w3.org/2000/svg">
<rect width="35" height="35" fill="white"/>
<path d="M18.9993 2.91772C20.6405 2.92044 21.4722 2.92913 22.1909 2.95052L22.4739 2.95977C22.8009 2.97139 23.1235 2.98597 23.5124 3.0042C25.0642 3.07591 26.1228 3.32139 27.0525 3.68233C28.0137 4.05299 28.8256 4.55368 29.6361 5.36428C30.4455 6.17487 30.9463 6.9891 31.3181 7.94795C31.6778 8.87643 31.9233 9.93616 31.9963 11.4881C32.0136 11.877 32.0276 12.1995 32.0391 12.5266L32.0483 12.8096C32.0696 13.5282 32.0794 14.36 32.0825 16.0013L32.0836 17.0886C32.0838 17.2215 32.0838 17.3585 32.0838 17.5L32.0836 17.9114L32.0827 18.9989C32.08 20.6401 32.0714 21.4719 32.0499 22.1904L32.0406 22.4735C32.0291 22.8006 32.0145 23.1232 31.9963 23.512C31.9245 25.0639 31.6778 26.1224 31.3181 27.0521C30.9474 28.0134 30.4455 28.8253 29.6361 29.6358C28.8256 30.4452 28.0101 30.9458 27.0525 31.3177C26.1228 31.6775 25.0642 31.9229 23.5124 31.9958C23.1235 32.0132 22.8009 32.0273 22.4739 32.0387L22.1909 32.0479C21.4722 32.0693 20.6405 32.079 18.9993 32.0822L17.9118 32.0833C17.779 32.0833 17.6419 32.0833 17.5004 32.0833H17.089L16.0016 32.0823C14.3603 32.0797 13.5285 32.0709 12.81 32.0495L12.5269 32.0403C12.1999 32.0286 11.8773 32.0141 11.4884 31.9958C9.93651 31.9242 8.87922 31.6775 7.94832 31.3177C6.98824 30.9471 6.17522 30.4452 5.36463 29.6358C4.55405 28.8253 4.05457 28.0098 3.6827 27.0521C3.32176 26.1224 3.07749 25.0639 3.00457 23.512C2.98725 23.1232 2.97311 22.8006 2.96167 22.4735L2.95249 22.1904C2.93116 21.4719 2.92143 20.6401 2.91828 18.9989L2.91809 16.0013C2.9208 14.36 2.92948 13.5282 2.95087 12.8096L2.96013 12.5266C2.97176 12.1995 2.98634 11.877 3.00457 11.4881C3.07626 9.93493 3.32176 8.87764 3.6827 7.94795C4.05335 6.98789 4.55405 6.17487 5.36463 5.36428C6.17522 4.55368 6.98947 4.0542 7.94832 3.68233C8.87801 3.32139 9.9353 3.07712 11.4884 3.0042C11.8773 2.98689 12.1999 2.97276 12.5269 2.96131L12.81 2.95214C13.5285 2.93079 14.3603 2.92106 16.0016 2.91791L18.9993 2.91772ZM17.5004 10.2084C13.4712 10.2084 10.2087 13.4744 10.2087 17.5C10.2087 21.5292 13.4747 24.7917 17.5004 24.7917C21.5297 24.7917 24.7921 21.5257 24.7921 17.5C24.7921 13.4708 21.526 10.2084 17.5004 10.2084ZM17.5004 13.125C19.9167 13.125 21.8754 15.0831 21.8754 17.5C21.8754 19.9163 19.9173 21.875 17.5004 21.875C15.0841 21.875 13.1254 19.917 13.1254 17.5C13.1254 15.0837 15.0834 13.125 17.5004 13.125ZM25.1567 8.02087C24.1515 8.02087 23.3338 8.83741 23.3338 9.84255C23.3338 10.8477 24.1503 11.6655 25.1567 11.6655C26.1618 11.6655 26.9796 10.849 26.9796 9.84255C26.9796 8.83741 26.1605 8.01962 25.1567 8.02087Z" fill="black"/>
</svg>
