<svg width="35" height="35" viewBox="0 0 35 35" fill="none" xmlns="http://www.w3.org/2000/svg">
<rect width="35" height="35" fill="white"/>
<path d="M10.1215 7.29158C10.121 8.47912 9.40052 9.54776 8.29986 9.99358C7.1992 10.4394 5.93813 10.1734 5.1113 9.32103C4.28447 8.46862 4.057 7.20003 4.53614 6.11346C5.01529 5.02688 6.10536 4.33929 7.29236 4.37492C8.86892 4.42224 10.1222 5.71431 10.1215 7.29158ZM10.209 12.3666H4.37569V30.6249H10.209V12.3666ZM19.4257 12.3666H13.6215V30.6249H19.3674V21.0436C19.3674 15.7061 26.3236 15.2103 26.3236 21.0436V30.6249H32.0841V19.0603C32.0841 10.0624 21.7882 10.3978 19.3674 14.8165L19.4257 12.3666Z" fill="white"/>
</svg>
