<svg width="35" height="35" viewBox="0 0 35 35" fill="none" xmlns="http://www.w3.org/2000/svg">
<rect width="35" height="35" fill="white"/>
<path d="M32.3932 8.2484C31.2799 8.74088 30.0993 9.06434 28.8905 9.20807C30.164 8.44567 31.1171 7.24631 31.5719 5.8334C30.3752 6.54443 29.0653 7.04487 27.6993 7.31297C26.5462 6.08279 24.9346 5.38567 23.2485 5.38758C19.8809 5.38758 17.1496 8.11797 17.1496 11.487C17.1496 11.965 17.2044 12.4285 17.3069 12.8758C12.2361 12.6205 7.74386 10.1938 4.73489 6.5033C4.19314 7.4341 3.90841 8.49214 3.90986 9.5691C3.90986 11.685 4.98692 13.5526 6.62301 14.646C5.65451 14.6154 4.70733 14.3538 3.86048 13.8829C3.85954 13.9086 3.85954 13.9342 3.85954 13.9584C3.85954 16.9143 5.96195 19.3801 8.75291 19.9399C8.22909 20.0817 7.68881 20.1533 7.14616 20.1529C6.75205 20.1529 6.36958 20.1165 5.99783 20.0452C6.77442 22.4678 9.02543 24.2315 11.6953 24.2799C9.53478 25.9755 6.86685 26.8955 4.12043 26.8915C3.63435 26.892 3.14868 26.8632 2.66602 26.8058C5.45423 28.5982 8.69972 29.5495 12.0144 29.546C23.2336 29.546 29.3679 20.2526 29.3679 12.1933C29.3679 11.9296 29.3615 11.665 29.3498 11.4041C30.5438 10.5415 31.5744 9.47285 32.3932 8.2484Z" fill="white"/>
</svg>
