<svg width="35" height="35" viewBox="0 0 35 35" fill="none" xmlns="http://www.w3.org/2000/svg">
<rect width="35" height="35" fill="white"/>
<path d="M17.8557 5.83331C18.6346 5.8376 20.5834 5.85644 22.6539 5.93938L23.388 5.97139C25.4727 6.07009 27.5557 6.2387 28.5888 6.52675C29.9667 6.91387 31.0498 8.04342 31.4159 9.47524C31.9988 11.7489 32.0717 16.1866 32.0807 17.2605L32.082 17.4831V17.4987C32.082 17.4987 32.082 17.5041 32.082 17.5144L32.0807 17.737C32.0717 18.8109 31.9988 23.2486 31.4159 25.5223C31.0447 26.9593 29.9616 28.0889 28.5888 28.4707C27.5557 28.7588 25.4727 28.9273 23.388 29.0261L22.6539 29.058C20.5834 29.141 18.6346 29.1598 17.8557 29.1642L17.5139 29.1653H17.4987C17.4987 29.1653 17.4936 29.1653 17.4835 29.1653L17.142 29.1642C15.4935 29.1551 8.60086 29.0806 6.40868 28.4707C5.03069 28.0835 3.94761 26.9541 3.5815 25.5223C2.99865 23.2486 2.92579 18.8109 2.91669 17.737V17.2605C2.92579 16.1866 2.99865 11.7489 3.5815 9.47524C3.95269 8.03811 5.03576 6.90857 6.40868 6.52675C8.60086 5.91677 15.4935 5.84238 17.142 5.83331H17.8557ZM14.5821 12.3946V22.6028L23.332 17.4987L14.5821 12.3946Z" fill="black"/>
</svg>
