<svg width="54" height="55" viewBox="0 0 54 55" fill="none" xmlns="http://www.w3.org/2000/svg">
<g clip-path="url(#clip0_39_65)">
<path d="M9.15514 6.85294C7.69827 6.85294 6.51721 8.03808 6.51721 9.49999V25.3823C6.51721 26.8443 7.69827 28.0294 9.15514 28.0294H24.9827C26.4397 28.0294 27.6207 26.8443 27.6207 25.3823V9.49999C27.6207 8.03808 26.4397 6.85294 24.9827 6.85294H9.15514ZM9.15514 33.3235C7.69827 33.3235 6.51721 34.5086 6.51721 35.9706V51.8529C6.51721 53.3149 7.69827 54.5 9.15514 54.5H24.9827C26.4397 54.5 27.6207 53.3149 27.6207 51.8529V35.9706C27.6207 34.5086 26.4397 33.3235 24.9827 33.3235H9.15514ZM35.5345 33.3235C34.0775 33.3235 32.8965 34.5086 32.8965 35.9706V51.8529C32.8965 53.3149 34.0775 54.5 35.5345 54.5H51.362C52.819 54.5 54 53.3149 54 51.8529V35.9706C54 34.5086 52.819 33.3235 51.362 33.3235H35.5345ZM40.8103 28.0294V20.0882H32.8965V14.7941H40.8103V6.85294H46.0862V14.7941H54V20.0882H46.0862V28.0294H40.8103Z" fill="white"/>
</g>
<defs>
<clipPath id="clip0_39_65">
<rect width="54" height="54" fill="white" transform="translate(0 0.5)"/>
</clipPath>
</defs>
</svg>
