<svg width="96" height="78" viewBox="0 0 96 78" fill="none" xmlns="http://www.w3.org/2000/svg">
<path fill-rule="evenodd" clip-rule="evenodd" d="M33.0722 0.981873C27.7132 0.981873 22.574 2.6871 18.7847 5.72242L0.5 20.3688V27.073C0.5 31.8095 3.03992 36.0708 7.08827 39.0306C3.03992 41.9904 0.5 46.2517 0.5 50.9882V57.6924L18.7847 72.3389C22.574 75.3743 27.7132 77.0794 33.0722 77.0794C38.9852 77.0794 44.305 75.0449 48 71.802C51.695 75.0449 57.0148 77.0794 62.9278 77.0794C68.2868 77.0794 73.426 75.3743 77.2154 72.3389L95.5 57.6924V50.9882C95.5 46.2517 92.9602 41.9904 88.9118 39.0306C92.9602 36.0708 95.5 31.8095 95.5 27.073V20.3688L77.2154 5.72242C73.426 2.6871 68.2868 0.981873 62.9278 0.981873C57.0148 0.981873 51.695 3.01641 48 6.25925C44.305 3.01641 38.9852 0.981873 33.0722 0.981873ZM61.6772 39.0306C61.4494 38.8642 61.2259 38.6931 61.0069 38.5177L48 28.0988L34.9931 38.5177C34.7741 38.6931 34.5506 38.8642 34.3228 39.0306C34.5506 39.1971 34.7741 39.3681 34.9931 39.5435L48 49.9624L61.0069 39.5435C61.2259 39.3681 61.4494 39.1971 61.6772 39.0306ZM53.2777 57.6924V60.8942C53.2777 65.1633 57.5983 68.6242 62.9278 68.6242C65.4871 68.6242 67.9417 67.8098 69.7514 66.3601L84.9445 54.19V50.9882C84.9445 46.7191 80.6239 43.2582 75.2944 43.2582C72.7351 43.2582 70.2806 44.0727 68.4708 45.5223L53.2777 57.6924ZM42.7223 57.6924L27.5292 45.5223C25.7194 44.0727 23.2649 43.2582 20.7056 43.2582C15.376 43.2582 11.0555 46.7191 11.0555 50.9882V54.19L26.2486 66.3601C28.0583 67.8098 30.5129 68.6242 33.0722 68.6242C38.4017 68.6242 42.7223 65.1633 42.7223 60.8942V57.6924ZM42.7223 17.1671V20.3688L27.5292 32.5389C25.7194 33.9886 23.2649 34.803 20.7056 34.803C15.376 34.803 11.0555 31.3421 11.0555 27.073V23.8712L26.2486 11.7012C28.0583 10.2516 30.5129 9.43716 33.0722 9.43716C38.4017 9.43716 42.7223 12.898 42.7223 17.1671ZM68.4708 32.5389L53.2777 20.3688V17.1671C53.2777 12.898 57.5983 9.43716 62.9278 9.43716C65.4871 9.43716 67.9417 10.2516 69.7514 11.7012L84.9445 23.8712V27.073C84.9445 31.3421 80.6239 34.803 75.2944 34.803C72.7351 34.803 70.2806 33.9886 68.4708 32.5389Z" fill="#FF630B"/>
</svg>